<svg width="40.000000" height="32.804443" viewBox="0 0 40 32.8044" fill="none" xmlns="http://www.w3.org/2000/svg" xmlns:xlink="http://www.w3.org/1999/xlink">
	<desc>
			Created with Pixso.
	</desc>
	<defs/>
	<path id="path" d="M38.46 0L1.53 0C1.33 0 1.13 0.04 0.94 0.12C0.76 0.2 0.59 0.32 0.45 0.48C0.3 0.63 0.19 0.81 0.11 1.01C0.03 1.21 0 1.42 0 1.64L0 29.52C0 29.95 0.07 30.37 0.23 30.77C0.39 31.18 0.61 31.53 0.9 31.84C1.18 32.15 1.52 32.38 1.89 32.55C2.27 32.72 2.66 32.8 3.07 32.8L36.92 32.8C37.33 32.8 37.72 32.72 38.1 32.55C38.47 32.38 38.81 32.15 39.09 31.84C39.38 31.53 39.6 31.18 39.76 30.77C39.92 30.37 40 29.95 40 29.52L40 1.64C40 1.42 39.96 1.21 39.88 1.01C39.8 0.81 39.69 0.63 39.54 0.48C39.4 0.32 39.23 0.2 39.05 0.12C38.86 0.04 38.66 0 38.46 0ZM20 17.45L5.49 3.28L34.5 3.28L20 17.45ZM14.36 16.4L3.07 27.43L3.07 5.36L14.36 16.4ZM16.64 18.62L18.95 20.89C19.09 21.03 19.25 21.13 19.43 21.21C19.61 21.28 19.79 21.32 19.99 21.32C20.18 21.32 20.37 21.28 20.55 21.21C20.73 21.13 20.89 21.03 21.03 20.89L23.34 18.62L34.49 29.52L5.49 29.52L16.64 18.62ZM25.63 16.4L36.92 5.36L36.92 27.43L25.63 16.4Z" fill="#FFFFFF" fill-opacity="1.000000" fill-rule="nonzero"/>
</svg>
