<svg width="34.196075" height="33.192078" viewBox="0 0 34.1961 33.1921" fill="none" xmlns="http://www.w3.org/2000/svg" xmlns:xlink="http://www.w3.org/1999/xlink">
	<desc>
			Created with Pixso.
	</desc>
	<defs/>
	<path id="path" d="M33.27 13.23L19.02 0.7C19.01 0.7 19.01 0.69 19 0.69C18.74 0.46 18.44 0.29 18.11 0.17C17.78 0.05 17.44 0 17.09 0C16.73 0 16.39 0.05 16.06 0.17C15.73 0.29 15.43 0.46 15.17 0.69L15.15 0.7L0.92 13.23C0.3 13.76 0 14.41 0 15.19L0 30.53C0 30.88 0.07 31.22 0.21 31.55C0.36 31.87 0.56 32.16 0.83 32.41C1.1 32.66 1.41 32.85 1.75 32.98C2.1 33.12 2.47 33.19 2.84 33.19L11.39 33.19C11.77 33.19 12.14 33.12 12.48 32.98C12.83 32.85 13.14 32.66 13.41 32.41C13.68 32.16 13.88 31.87 14.03 31.55C14.17 31.22 14.24 30.88 14.24 30.53L14.24 22.56L19.94 22.56L19.94 30.53C19.94 30.88 20.02 31.22 20.16 31.55C20.3 31.87 20.51 32.16 20.78 32.41C21.04 32.66 21.35 32.85 21.7 32.98C22.05 33.12 22.41 33.19 22.79 33.19L31.34 33.19C31.72 33.19 32.08 33.12 32.43 32.98C32.78 32.85 33.09 32.66 33.36 32.41C33.62 32.16 33.83 31.87 33.97 31.55C34.12 31.22 34.19 30.88 34.19 30.53L34.19 15.19C34.19 14.41 33.88 13.76 33.27 13.23ZM31.34 30.53L22.79 30.53L22.79 22.56C22.79 22.21 22.72 21.87 22.58 21.55C22.43 21.22 22.22 20.94 21.96 20.69C21.69 20.44 21.38 20.25 21.03 20.11C20.68 19.98 20.32 19.91 19.94 19.91L14.24 19.91C13.87 19.91 13.5 19.98 13.15 20.11C12.8 20.25 12.5 20.44 12.23 20.69C11.96 20.94 11.76 21.22 11.61 21.55C11.47 21.87 11.39 22.21 11.39 22.56L11.39 30.53L2.84 30.53L2.84 15.19L2.86 15.17L17.09 2.65L31.32 15.17L31.34 15.18L31.34 30.53Z" fill="#FFFFFF" fill-opacity="1.000000" fill-rule="nonzero"/>
</svg>
