<svg width="34.000000" height="33.000000" viewBox="0 0 34 33" fill="none" xmlns="http://www.w3.org/2000/svg" xmlns:xlink="http://www.w3.org/1999/xlink">
	<desc>
			Created with Pixso.
	</desc>
	<defs/>
	<path id="path" d="M28.77 21.11C27.58 21.11 26.52 21.47 25.58 22.21L21.8 19.24C22.09 18.57 22.23 17.88 22.23 17.15C22.23 17.03 22.23 16.9 22.22 16.78L24.38 16.06C24.5 16.23 24.62 16.4 24.75 16.56C24.88 16.72 25.03 16.87 25.18 17.02C25.33 17.16 25.49 17.3 25.65 17.42C25.82 17.55 25.99 17.66 26.17 17.77C26.35 17.87 26.54 17.96 26.73 18.04C26.92 18.13 27.11 18.2 27.31 18.25C27.51 18.31 27.72 18.36 27.92 18.39C28.12 18.43 28.33 18.45 28.54 18.46C28.74 18.47 28.95 18.46 29.16 18.45C29.37 18.43 29.57 18.4 29.77 18.36C29.98 18.32 30.18 18.27 30.38 18.21C30.57 18.14 30.77 18.07 30.95 17.98C31.14 17.89 31.33 17.79 31.5 17.68C31.68 17.57 31.85 17.45 32.01 17.32C32.17 17.19 32.33 17.05 32.48 16.91C32.62 16.76 32.76 16.6 32.89 16.43C33.01 16.27 33.13 16.1 33.24 15.92C33.35 15.74 33.44 15.55 33.53 15.36C33.61 15.17 33.69 14.98 33.75 14.78C33.81 14.58 33.86 14.38 33.9 14.17C33.94 13.96 33.97 13.76 33.98 13.55C34 13.34 34 13.13 33.99 12.92C33.98 12.71 33.96 12.5 33.92 12.3C33.89 12.09 33.84 11.89 33.78 11.69C33.72 11.48 33.65 11.29 33.57 11.1C33.49 10.9 33.39 10.72 33.29 10.54C33.18 10.35 33.07 10.18 32.95 10.01C32.82 9.84 32.69 9.69 32.54 9.53C32.4 9.38 32.25 9.24 32.09 9.11C31.93 8.97 31.76 8.85 31.58 8.74C31.41 8.63 31.23 8.52 31.04 8.43C30.86 8.34 30.66 8.26 30.47 8.19C30.27 8.13 30.07 8.07 29.87 8.03C29.67 7.98 29.46 7.95 29.26 7.93C29.05 7.91 28.84 7.9 28.63 7.91C28.43 7.91 28.22 7.93 28.02 7.96C27.81 7.99 27.61 8.03 27.41 8.09C27.21 8.14 27.01 8.21 26.82 8.29C26.63 8.37 26.44 8.46 26.26 8.56C26.07 8.66 25.9 8.77 25.73 8.89C25.56 9.01 25.4 9.14 25.25 9.28C25.09 9.43 24.95 9.58 24.81 9.73C24.68 9.89 24.55 10.06 24.44 10.23C24.32 10.41 24.21 10.59 24.12 10.77C24.02 10.96 23.94 11.15 23.87 11.35C23.8 11.54 23.74 11.74 23.69 11.95C23.64 12.15 23.6 12.36 23.58 12.56C23.55 12.77 23.54 12.98 23.54 13.19C23.54 13.31 23.54 13.43 23.55 13.55L21.39 14.28C21.16 13.91 20.88 13.58 20.56 13.28C20.24 12.98 19.89 12.72 19.5 12.51C19.12 12.3 18.72 12.14 18.3 12.03C17.87 11.92 17.44 11.87 17.01 11.87C16.72 11.87 16.43 11.89 16.15 11.94L15.03 9.4C15.19 9.27 15.34 9.13 15.48 8.98C15.63 8.84 15.76 8.68 15.89 8.52C16.01 8.36 16.13 8.19 16.23 8.01C16.34 7.84 16.43 7.66 16.52 7.47C16.6 7.28 16.68 7.09 16.74 6.89C16.8 6.7 16.85 6.5 16.89 6.3C16.93 6.09 16.96 5.89 16.98 5.69C16.99 5.48 17 5.27 16.99 5.07C16.98 4.86 16.96 4.66 16.93 4.46C16.9 4.25 16.86 4.05 16.8 3.85C16.75 3.65 16.68 3.46 16.6 3.27C16.52 3.08 16.44 2.89 16.34 2.71C16.24 2.53 16.13 2.36 16.01 2.19C15.89 2.03 15.76 1.87 15.63 1.71C15.49 1.56 15.34 1.42 15.19 1.28C15.03 1.15 14.87 1.02 14.7 0.91C14.54 0.79 14.36 0.69 14.18 0.59C14 0.5 13.81 0.41 13.62 0.34C13.43 0.27 13.24 0.2 13.04 0.15C12.84 0.1 12.64 0.07 12.44 0.04C12.24 0.01 12.03 0 11.83 0C11.63 -0.01 11.42 0 11.22 0.02C11.02 0.05 10.82 0.08 10.62 0.12C10.42 0.17 10.22 0.23 10.03 0.29C9.84 0.36 9.65 0.44 9.47 0.53C9.28 0.62 9.11 0.72 8.94 0.84C8.76 0.95 8.6 1.07 8.44 1.2C8.29 1.33 8.14 1.47 7.99 1.62C7.85 1.77 7.72 1.92 7.6 2.09C7.48 2.25 7.36 2.42 7.26 2.6C7.16 2.78 7.06 2.96 6.98 3.15C6.9 3.34 6.83 3.53 6.77 3.73C6.71 3.92 6.66 4.12 6.62 4.33C6.59 4.53 6.56 4.73 6.55 4.94C6.54 5.14 6.54 5.35 6.55 5.56C6.56 5.76 6.58 5.97 6.62 6.17C6.65 6.37 6.7 6.57 6.75 6.77C6.81 6.97 6.88 7.16 6.96 7.35C7.04 7.54 7.13 7.72 7.23 7.9C7.34 8.08 7.45 8.25 7.57 8.42C7.69 8.58 7.82 8.74 7.96 8.89C8.1 9.04 8.25 9.18 8.4 9.31C8.56 9.45 8.72 9.57 8.89 9.68C9.06 9.8 9.24 9.9 9.42 9.99C9.6 10.08 9.79 10.16 9.98 10.23C10.18 10.3 10.37 10.36 10.57 10.41C10.77 10.46 10.97 10.49 11.17 10.52C11.37 10.54 11.58 10.55 11.78 10.55C12.07 10.55 12.36 10.53 12.64 10.48L13.76 13.02C13.52 13.21 13.31 13.41 13.11 13.64C12.91 13.86 12.73 14.11 12.57 14.36C12.41 14.62 12.27 14.89 12.16 15.17C12.05 15.45 11.96 15.74 11.9 16.03C11.83 16.33 11.8 16.63 11.78 16.93C11.77 17.23 11.79 17.54 11.83 17.84C11.86 18.14 11.93 18.43 12.02 18.72C12.11 19.01 12.22 19.29 12.36 19.56L8.16 23.32C7.98 23.2 7.8 23.1 7.62 23C7.43 22.9 7.24 22.82 7.04 22.74C6.84 22.67 6.64 22.61 6.44 22.56C6.23 22.51 6.02 22.48 5.82 22.45C5.61 22.43 5.4 22.42 5.19 22.42C4.98 22.42 4.77 22.44 4.56 22.46C4.35 22.49 4.14 22.53 3.94 22.58C3.74 22.64 3.54 22.7 3.34 22.78C3.14 22.85 2.95 22.94 2.77 23.04C2.58 23.14 2.4 23.25 2.23 23.37C2.06 23.5 1.89 23.63 1.74 23.77C1.58 23.91 1.43 24.06 1.29 24.22C1.15 24.38 1.03 24.55 0.91 24.73C0.79 24.9 0.68 25.08 0.58 25.27C0.49 25.46 0.4 25.65 0.33 25.85C0.25 26.05 0.19 26.25 0.14 26.46C0.09 26.67 0.06 26.88 0.03 27.09C0.01 27.3 -0.01 27.51 0 27.72C0 27.93 0.01 28.15 0.03 28.36C0.06 28.57 0.1 28.78 0.15 28.98C0.2 29.19 0.26 29.39 0.34 29.59C0.41 29.79 0.5 29.98 0.6 30.17C0.69 30.36 0.8 30.54 0.92 30.71C1.04 30.89 1.17 31.05 1.31 31.21C1.45 31.37 1.6 31.52 1.76 31.66C1.91 31.8 2.08 31.94 2.25 32.06C2.43 32.18 2.61 32.29 2.79 32.39C2.98 32.48 3.17 32.57 3.37 32.65C3.56 32.72 3.76 32.79 3.97 32.84C4.17 32.89 4.38 32.93 4.59 32.95C4.79 32.98 5 32.99 5.21 33C5.42 33 5.63 32.98 5.84 32.96C6.05 32.93 6.26 32.9 6.46 32.85C6.67 32.8 6.87 32.73 7.07 32.66C7.26 32.59 7.45 32.5 7.64 32.4C7.83 32.3 8.01 32.2 8.18 32.08C8.36 31.96 8.52 31.83 8.68 31.69C8.84 31.55 8.99 31.4 9.13 31.24C9.27 31.08 9.4 30.92 9.52 30.74C9.64 30.57 9.75 30.39 9.85 30.2C9.95 30.01 10.04 29.82 10.11 29.62C10.19 29.42 10.25 29.22 10.31 29.02C10.36 28.81 10.4 28.6 10.42 28.39C10.45 28.18 10.47 27.97 10.47 27.76C10.47 27.54 10.46 27.33 10.44 27.12C10.41 26.91 10.38 26.7 10.33 26.49C10.28 26.29 10.22 26.08 10.15 25.88C10.08 25.69 9.99 25.49 9.9 25.3L14.1 21.54C14.55 21.84 15.04 22.08 15.57 22.23C16.09 22.38 16.63 22.45 17.18 22.43C17.73 22.41 18.26 22.31 18.77 22.12C19.29 21.93 19.76 21.67 20.2 21.33L23.97 24.3C23.69 24.96 23.54 25.66 23.54 26.38C23.54 26.73 23.57 27.07 23.64 27.41C23.71 27.75 23.81 28.08 23.94 28.4C24.07 28.72 24.23 29.03 24.42 29.32C24.61 29.6 24.83 29.87 25.07 30.12C25.31 30.36 25.58 30.58 25.86 30.77C26.15 30.96 26.45 31.13 26.77 31.26C27.08 31.39 27.41 31.49 27.75 31.56C28.08 31.63 28.42 31.66 28.77 31.66C29.11 31.66 29.45 31.63 29.79 31.56C30.12 31.49 30.45 31.39 30.77 31.26C31.09 31.13 31.39 30.96 31.67 30.77C31.96 30.58 32.22 30.36 32.46 30.12C32.71 29.87 32.92 29.6 33.11 29.32C33.3 29.03 33.47 28.72 33.6 28.4C33.73 28.08 33.83 27.75 33.89 27.41C33.96 27.07 34 26.73 34 26.38C34 26.04 33.96 25.69 33.89 25.35C33.83 25.01 33.73 24.68 33.6 24.36C33.47 24.04 33.3 23.74 33.11 23.45C32.92 23.16 32.71 22.9 32.46 22.65C32.22 22.41 31.96 22.19 31.67 22C31.39 21.8 31.09 21.64 30.77 21.51C30.45 21.38 30.12 21.28 29.79 21.21C29.45 21.14 29.11 21.11 28.77 21.11ZM28.77 10.55C29.11 10.55 29.45 10.62 29.77 10.75C30.09 10.89 30.37 11.08 30.62 11.32C30.86 11.57 31.05 11.86 31.18 12.18C31.32 12.5 31.38 12.84 31.38 13.19C31.38 13.54 31.32 13.88 31.18 14.2C31.05 14.52 30.86 14.81 30.62 15.06C30.37 15.3 30.09 15.49 29.77 15.63C29.45 15.76 29.11 15.83 28.77 15.83C28.42 15.83 28.09 15.76 27.77 15.63C27.45 15.49 27.17 15.3 26.92 15.06C26.67 14.81 26.49 14.52 26.35 14.2C26.22 13.88 26.15 13.54 26.15 13.19C26.15 12.84 26.22 12.5 26.35 12.18C26.49 11.86 26.67 11.57 26.92 11.32C27.17 11.08 27.45 10.89 27.77 10.75C28.09 10.62 28.42 10.55 28.77 10.55ZM9.17 5.27C9.17 4.92 9.23 4.59 9.37 4.26C9.5 3.94 9.69 3.65 9.93 3.41C10.18 3.16 10.46 2.97 10.78 2.83C11.1 2.7 11.43 2.63 11.78 2.63C12.13 2.63 12.46 2.7 12.78 2.83C13.1 2.97 13.38 3.16 13.63 3.41C13.87 3.65 14.06 3.94 14.2 4.26C14.33 4.59 14.39 4.92 14.39 5.27C14.39 5.62 14.33 5.96 14.2 6.28C14.06 6.61 13.87 6.89 13.63 7.14C13.38 7.39 13.1 7.58 12.78 7.71C12.46 7.84 12.13 7.91 11.78 7.91C11.43 7.91 11.1 7.84 10.78 7.71C10.46 7.58 10.18 7.39 9.93 7.14C9.69 6.89 9.5 6.61 9.37 6.28C9.23 5.96 9.17 5.62 9.17 5.27ZM5.25 30.34C4.9 30.34 4.57 30.28 4.25 30.14C3.93 30.01 3.64 29.82 3.4 29.57C3.15 29.32 2.96 29.04 2.83 28.71C2.7 28.39 2.63 28.05 2.63 27.7C2.63 27.35 2.7 27.02 2.83 26.69C2.96 26.37 3.15 26.08 3.4 25.84C3.64 25.59 3.93 25.4 4.25 25.27C4.57 25.13 4.9 25.06 5.25 25.06C5.59 25.06 5.93 25.13 6.25 25.27C6.57 25.4 6.85 25.59 7.09 25.84C7.34 26.08 7.53 26.37 7.66 26.69C7.79 27.02 7.86 27.35 7.86 27.7C7.86 28.05 7.79 28.39 7.66 28.71C7.53 29.04 7.34 29.32 7.09 29.57C6.85 29.82 6.57 30.01 6.25 30.14C5.93 30.28 5.59 30.34 5.25 30.34ZM14.39 17.15C14.39 16.8 14.46 16.46 14.59 16.14C14.73 15.81 14.91 15.53 15.16 15.28C15.4 15.03 15.69 14.84 16.01 14.71C16.33 14.58 16.66 14.51 17.01 14.51C17.35 14.51 17.69 14.58 18.01 14.71C18.33 14.84 18.61 15.03 18.86 15.28C19.1 15.53 19.29 15.81 19.42 16.14C19.55 16.46 19.62 16.8 19.62 17.15C19.62 17.5 19.55 17.83 19.42 18.16C19.29 18.48 19.1 18.77 18.86 19.01C18.61 19.26 18.33 19.45 18.01 19.59C17.69 19.72 17.35 19.79 17.01 19.79C16.66 19.79 16.33 19.72 16.01 19.59C15.69 19.45 15.4 19.26 15.16 19.01C14.91 18.77 14.73 18.48 14.59 18.16C14.46 17.83 14.39 17.5 14.39 17.15ZM28.77 29.02C28.42 29.02 28.09 28.96 27.77 28.82C27.45 28.69 27.17 28.5 26.92 28.25C26.67 28 26.49 27.72 26.35 27.39C26.22 27.07 26.15 26.73 26.15 26.38C26.15 26.03 26.22 25.7 26.35 25.37C26.49 25.05 26.67 24.77 26.92 24.52C27.17 24.27 27.45 24.08 27.77 23.95C28.09 23.81 28.42 23.75 28.77 23.75C29.11 23.75 29.45 23.81 29.77 23.95C30.09 24.08 30.37 24.27 30.62 24.52C30.86 24.77 31.05 25.05 31.18 25.37C31.32 25.7 31.38 26.03 31.38 26.38C31.38 26.73 31.32 27.07 31.18 27.39C31.05 27.72 30.86 28 30.62 28.25C30.37 28.5 30.09 28.69 29.77 28.82C29.45 28.96 29.11 29.02 28.77 29.02Z" fill="#FFFFFF" fill-opacity="1.000000" fill-rule="nonzero"/>
</svg>
